# xmcd
#
# Track frame offsets:
# 150
# 18372
# 36951
# 70913
# 95462
# 140818
# 167688
# 191640
# 229465
#
# Disc length: 3509 seconds
#
#
# Revision: 0
# Processed by: cddbd v1.5.2PL0 Copyright (c) Steve Scherf et al.
# Submitted via: FreeRIP 2.942 
#
DISCID=7e0db309
DTITLE=Dangerous Minds - Give Me Danger Remixes
DYEAR=2007
DGENRE=Pop
TTITLE0=Give Me Danger (Original Version)
TTITLE1=Give Me Danger (Michael Skype/Ssigier Mix)
TTITLE2=Give Me Danger (Mark Saunders Mix)
TTITLE3=Give Me Danger (Blazing Lazer Remix)
TTITLE4=Give Me Danger (Peter Rauhofer Club Mix)
TTITLE5=Give Me Danger (Goddollars Rufftouch Mix)
TTITLE6=Give Me Danger (Vanity Police Mix)
TTITLE7=Give Me Danger (SilverSpirit Clandestine Mix)
TTITLE8=Give Me Danger (Rauhofer Reconstruction Dub)
EXTD=
EXTT0=
EXTT1=
EXTT2=
EXTT3=
EXTT4=
EXTT5=
EXTT6=
EXTT7=
EXTT8=
PLAYORDER=
